<svg width="142" height="40" viewBox="0 0 142 40" fill="none" xmlns="http://www.w3.org/2000/svg">
<rect width="142" height="40" fill="white"/>
<path d="M58.5121 20.2242C58.5121 21.0768 58.3555 21.8307 58.0424 22.4858C57.7293 23.1362 57.2813 23.6805 56.6984 24.1189C56.1156 24.5572 55.4074 24.8896 54.5741 25.116C53.7455 25.3376 52.8134 25.4484 51.7777 25.4484C50.742 25.4484 49.8051 25.3376 48.9669 25.116C48.1336 24.8896 47.423 24.5572 46.8353 24.1189C46.2476 23.6805 45.7948 23.1362 45.4769 22.4858C45.159 21.8307 45 21.0768 45 20.2242C45 19.3716 45.159 18.6201 45.4769 17.9698C45.7948 17.3146 46.2476 16.7679 46.8353 16.3295C47.423 15.8912 48.1336 15.5612 48.9669 15.3396C49.8051 15.1132 50.742 15 51.7777 15C52.8134 15 53.7455 15.1132 54.5741 15.3396C55.4074 15.5612 56.1156 15.8912 56.6984 16.3295C57.2813 16.7679 57.7293 17.3146 58.0424 17.9698C58.3555 18.6201 58.5121 19.3716 58.5121 20.2242ZM55.8025 20.2242C55.8025 19.8533 55.7422 19.4848 55.6218 19.1187C55.5062 18.7477 55.2967 18.4154 54.9932 18.1215C54.6945 17.8277 54.2851 17.5892 53.7648 17.4062C53.2445 17.2231 52.5822 17.1316 51.7777 17.1316C51.2382 17.1316 50.7637 17.1749 50.3543 17.2617C49.9448 17.3435 49.5907 17.4592 49.2921 17.6085C48.9934 17.7578 48.7429 17.9336 48.5406 18.136C48.3383 18.3335 48.1769 18.5478 48.0565 18.7791C47.9361 19.0055 47.8493 19.2439 47.7964 19.4944C47.7482 19.7401 47.7241 19.9833 47.7241 20.2242C47.7241 20.4699 47.7482 20.718 47.7964 20.9684C47.8493 21.2189 47.9361 21.4598 48.0565 21.691C48.1769 21.9174 48.3383 22.1294 48.5406 22.3269C48.7429 22.5244 48.9934 22.6978 49.2921 22.8471C49.5907 22.9916 49.9448 23.1073 50.3543 23.194C50.7637 23.2759 51.2382 23.3168 51.7777 23.3168C52.5822 23.3168 53.2445 23.2253 53.7648 23.0422C54.2851 22.8592 54.6945 22.6207 54.9932 22.3269C55.2967 22.033 55.5062 21.7031 55.6218 21.337C55.7422 20.966 55.8025 20.5951 55.8025 20.2242Z" fill="black"/>
<path d="M70.3334 25.181L63.6351 18.36V25.181H60.9544V15.2529H63.8664L70.5718 22.1029V15.2529H73.2381V25.181H70.3334Z" fill="black"/>
<path d="M76.3452 25.181V15.2529H86.3962V17.37H79.0982V19.0103H86.0204V21.1274H79.0982V23.0639H86.4973V25.181H76.3452Z" fill="black"/>
<path d="M98.2391 18.0493C98.0512 17.9577 97.8032 17.8542 97.4949 17.7385C97.1866 17.6229 96.8373 17.5146 96.4471 17.4134C96.0569 17.3074 95.633 17.2207 95.1754 17.1533C94.7178 17.081 94.2481 17.0449 93.7664 17.0449C93.381 17.0449 93.051 17.0569 92.7765 17.081C92.5067 17.1051 92.2779 17.1364 92.09 17.1749C91.907 17.2135 91.76 17.2592 91.6493 17.3122C91.5433 17.3604 91.4614 17.411 91.4036 17.464C91.3458 17.517 91.3072 17.5699 91.288 17.6229C91.2735 17.6759 91.2663 17.7241 91.2663 17.7675C91.2663 17.912 91.3385 18.0396 91.4831 18.1504C91.6276 18.2564 91.8251 18.3527 92.0756 18.4394C92.3261 18.5213 92.6175 18.6008 92.9499 18.6779C93.2823 18.7501 93.6339 18.8272 94.0048 18.9091C94.3806 18.9862 94.7659 19.0729 95.161 19.1692C95.5608 19.2608 95.9461 19.3692 96.3171 19.4944C96.6928 19.6196 97.0469 19.7666 97.3792 19.9352C97.7116 20.099 98.0031 20.2916 98.2536 20.5132C98.5041 20.7348 98.7016 20.9901 98.8461 21.2792C98.9906 21.5682 99.0628 21.8982 99.0628 22.2691C99.0628 22.746 98.9785 23.1554 98.8099 23.4974C98.6413 23.8395 98.4149 24.1285 98.1307 24.3645C97.8513 24.6006 97.5262 24.7909 97.1553 24.9354C96.7843 25.0751 96.3941 25.1834 95.9847 25.2605C95.58 25.3376 95.1682 25.3882 94.7491 25.4123C94.3348 25.4363 93.9398 25.4484 93.5641 25.4484C92.5814 25.4484 91.6709 25.3665 90.8327 25.2027C89.9994 25.0438 89.2624 24.8438 88.6217 24.603V22.2329C89.2816 22.599 90.0331 22.8857 90.8761 23.0928C91.7239 23.2999 92.6295 23.4035 93.593 23.4035C94.1614 23.4035 94.6238 23.3746 94.9803 23.3168C95.3416 23.2542 95.6234 23.1771 95.8257 23.0856C96.028 22.9892 96.1653 22.8857 96.2376 22.7749C96.3098 22.6641 96.346 22.5581 96.346 22.4569C96.346 22.298 96.2737 22.1607 96.1292 22.0451C95.9847 21.9246 95.7872 21.8211 95.5367 21.7344C95.2862 21.6428 94.9948 21.561 94.6624 21.4887C94.33 21.4116 93.9759 21.337 93.6002 21.2647C93.2293 21.1876 92.8463 21.1057 92.4513 21.019C92.0563 20.9323 91.6709 20.8312 91.2952 20.7155C90.9243 20.5951 90.5726 20.4578 90.2402 20.3037C89.9079 20.1447 89.6164 19.9593 89.3659 19.7473C89.1154 19.5305 88.9179 19.2824 88.7734 19.003C88.6289 18.7188 88.5566 18.3913 88.5566 18.0204C88.5566 17.582 88.6337 17.2038 88.7879 16.8859C88.942 16.568 89.1492 16.2982 89.4093 16.0766C89.6742 15.8502 89.9777 15.6672 90.3197 15.5275C90.6666 15.3878 91.0302 15.2794 91.4108 15.2023C91.7914 15.1252 92.1767 15.0723 92.5669 15.0434C92.9571 15.0145 93.328 15 93.6797 15C94.0651 15 94.4601 15.0193 94.8647 15.0578C95.2742 15.0963 95.6764 15.1517 96.0714 15.224C96.4664 15.2914 96.847 15.3709 97.2131 15.4624C97.584 15.554 97.926 15.6503 98.2391 15.7515V18.0493Z" fill="black"/>
<path d="M112.546 24.5018C112.199 24.6463 111.85 24.7764 111.498 24.892C111.147 25.0076 110.783 25.1064 110.407 25.1883C110.031 25.275 109.634 25.34 109.215 25.3834C108.801 25.4267 108.355 25.4484 107.878 25.4484C106.867 25.4484 105.935 25.34 105.082 25.1232C104.234 24.9065 103.502 24.5813 102.885 24.1478C102.273 23.7094 101.797 23.1651 101.455 22.5147C101.113 21.8596 100.942 21.0961 100.942 20.2242C100.942 19.3523 101.113 18.5912 101.455 17.9409C101.797 17.2857 102.273 16.7414 102.885 16.3079C103.502 15.8695 104.234 15.5419 105.082 15.3252C105.935 15.1084 106.867 15 107.878 15C108.355 15 108.801 15.0217 109.215 15.065C109.634 15.1084 110.031 15.1734 110.407 15.2601C110.783 15.342 111.147 15.4408 111.498 15.5564C111.85 15.672 112.199 15.8021 112.546 15.9466V18.36C112.271 18.2106 111.982 18.0637 111.679 17.9192C111.375 17.7699 111.041 17.6374 110.675 17.5218C110.308 17.4013 109.906 17.305 109.468 17.2327C109.03 17.1557 108.536 17.1171 107.987 17.1171C107.144 17.1171 106.443 17.2038 105.884 17.3773C105.33 17.5507 104.887 17.7819 104.554 18.0709C104.222 18.36 103.988 18.6923 103.853 19.0681C103.719 19.439 103.651 19.8244 103.651 20.2242C103.651 20.4891 103.68 20.7517 103.738 21.0118C103.796 21.2671 103.892 21.5104 104.027 21.7416C104.162 21.968 104.338 22.1775 104.554 22.3702C104.771 22.5629 105.041 22.7291 105.364 22.8688C105.686 23.0085 106.062 23.1193 106.491 23.2012C106.924 23.2783 107.423 23.3168 107.987 23.3168C108.536 23.3168 109.03 23.2831 109.468 23.2156C109.906 23.1434 110.308 23.0495 110.675 22.9338C111.041 22.8182 111.375 22.6882 111.679 22.5437C111.982 22.3943 112.271 22.2426 112.546 22.0884V24.5018Z" fill="black"/>
<path d="M123.096 23.3024H117.561L116.629 25.181H113.637L118.832 15.2529H121.824L127.019 25.181H124.028L123.096 23.3024ZM118.522 21.3659H122.149L120.343 17.7096L118.522 21.3659Z" fill="black"/>
<path d="M138.024 25.181L131.326 18.36V25.181H128.645V15.2529H131.557L138.262 22.1029V15.2529H140.929V25.181H138.024Z" fill="black"/>
<path d="M24.0943 29.0798C17.9726 31.2121 12.9306 31.8981 9.1796 31.4241C5.42857 30.9501 2.84998 29.291 1.94392 26.6298C1.03785 23.9686 2.06199 21.0531 4.72758 18.3453C7.39316 15.6376 11.7855 13.0364 17.9076 10.9041C24.0296 8.7718 29.0712 8.08616 32.8222 8.55973C36.5733 9.03329 39.1519 10.6929 40.0575 13.3545C40.9632 16.0161 39.9394 18.9312 37.2738 21.6385C34.6083 24.3458 30.2163 26.9475 24.0943 29.0798Z" fill="black"/>
<path d="M40.6457 13.1518C39.9 10.9609 38.1003 9.36543 35.4857 8.51092C34.9231 5.74161 33.3827 2.20915 29.2634 0.611178C29.287 0.619979 29.2402 0.601958 29.2634 0.611178C25.173 -0.958293 19.9587 0.540769 17.1945 4.58116C15.8767 6.54037 15.194 8.86574 15.2411 11.235C10.4953 13.1338 6.73559 15.4153 4.28544 17.9043C1.4239 20.8106 0.38277 23.981 1.35471 26.8366C2.17377 29.2439 4.26348 30.9344 7.31063 31.7106C7.87904 34.4564 9.41111 37.8263 13.4095 39.3773C13.4335 39.3865 13.458 39.3924 13.482 39.4012L13.4795 39.4071C17.7053 41.0289 22.599 39.2239 25.2003 35.2091C26.4639 33.2325 27.1496 30.935 27.1786 28.5813C31.7243 26.7172 35.3357 24.499 37.7129 22.0855C40.5761 19.1762 41.6168 16.0041 40.6457 13.1518ZM2.53048 26.4276C1.72136 24.0514 2.65767 21.3395 5.16665 18.7915C7.43078 16.4915 10.9059 14.3655 15.3028 12.566C15.6297 15.3361 16.5048 18.0112 17.876 20.4318L18.4718 21.5348C20.4272 25.1536 20.7123 27.7901 20.3929 29.5733C16.0966 30.7547 12.2905 31.1842 9.25699 30.8016C5.72843 30.3553 3.34002 28.8013 2.53173 26.4255L2.53048 26.4276ZM13.9236 38.2261C13.9013 38.2177 13.8785 38.2123 13.8561 38.2035C10.6851 36.9734 9.25036 34.4527 8.64052 31.9813C8.7934 32.0052 8.94503 32.0303 9.10163 32.0505C9.9161 32.1504 10.7359 32.1993 11.5563 32.1967C11.9375 32.1967 12.3311 32.1821 12.7284 32.1628C12.8415 32.1573 12.9529 32.1536 13.0669 32.1469H13.0731C13.2928 32.6376 13.6061 33.0796 13.9951 33.4476C14.384 33.8156 14.841 34.1023 15.3397 34.2913C15.3567 34.298 15.3753 34.3026 15.3927 34.3089V34.3139C17.0263 34.9426 19.3414 34.3169 20.6957 32.2235C21.0177 31.7166 21.2651 31.1651 21.4303 30.5862H21.4365C21.446 30.5543 21.4526 30.517 21.4617 30.4843C21.4849 30.4005 21.5032 30.3134 21.526 30.2262C21.6104 29.8893 21.6718 29.5469 21.7099 29.2015L21.7004 29.204C21.9113 27.143 21.4303 24.3976 19.5605 20.9368C19.3418 20.5697 19.1603 20.1925 18.966 19.8325C17.4443 17.0104 16.6758 14.4125 16.5192 12.087H16.5237C16.5051 11.8263 16.4964 11.5685 16.4931 11.3133C16.4466 9.16685 17.0682 7.05987 18.27 5.29024C20.6245 1.87555 25.1589 0.371461 28.8172 1.79048C32.0532 3.04564 33.5099 5.64354 34.133 8.15427C33.9377 8.11264 33.7394 8.0745 33.5381 8.03986C33.328 8.00465 33.1159 7.97154 32.898 7.94388C32.6453 7.91203 32.3874 7.88536 32.1245 7.86385C32.0959 7.86133 32.0661 7.86049 32.0371 7.8584C31.8013 7.84038 31.5631 7.82487 31.3199 7.81649H31.3062C30.7652 7.79497 30.2066 7.794 29.6304 7.81356H29.6221C29.1544 6.84012 28.3352 6.08531 27.3336 5.70472C27.3166 5.69844 27.2979 5.69383 27.2809 5.68755V5.68335C25.5629 5.02413 23.0137 5.65653 21.6225 7.68867C21.2872 8.18553 21.0353 8.73492 20.8768 9.31472C20.2922 11.3967 20.5714 14.5784 23.3016 19.0412L23.3087 19.0505L23.3526 19.1221C25.0259 22.282 25.8094 25.1989 25.8931 27.7875C25.8993 27.961 25.9005 28.1303 25.9005 28.2988C25.9005 28.3407 25.9005 28.3801 25.9005 28.4204L25.8889 28.425C25.8945 30.593 25.2755 32.7157 24.1074 34.5335C21.8118 38.0488 17.5392 39.594 13.9216 38.2299L13.9236 38.2261ZM27.1509 27.2331C26.9789 24.5769 26.1151 21.5893 24.3295 18.32C22.077 14.6203 21.6855 12.027 21.9353 10.323C24.7029 9.53334 27.5587 9.10381 30.4337 9.04482C31.2063 9.04226 31.9782 9.08831 32.7451 9.18271C36.2732 9.62819 38.6617 11.1822 39.4704 13.558C40.2791 15.9337 39.3428 18.646 36.8338 21.1941C34.6471 23.4161 31.334 25.475 27.1509 27.2331Z" fill="white"/>
<path d="M28.8184 1.7827C28.7965 1.7739 28.7737 1.76846 28.7513 1.76007V1.75546C25.294 0.429894 21.1519 1.62973 18.676 4.67857C15.457 8.64101 15.8021 14.5396 19.5912 20.9131L19.5601 20.9302C23.3617 27.9667 21.3047 31.5917 20.2442 32.8239C18.9677 34.3062 16.9712 34.9193 15.3898 34.3103V34.3057C15.3724 34.2995 15.3538 34.2948 15.3368 34.2881C14.8371 34.0998 14.3791 33.8135 13.989 33.4456C13.599 33.0778 13.2846 32.6356 13.064 32.1445C12.5482 32.1755 12.0427 32.1944 11.5535 32.1944C10.733 32.1969 9.91322 32.1481 9.09876 32.0481C8.94174 32.028 8.78969 32.0024 8.63599 31.9786C9.24583 34.4512 10.6822 36.9711 13.8532 38.2011C13.8752 38.2099 13.8984 38.2154 13.9207 38.2238L13.9187 38.2288C14.8057 38.5676 15.7463 38.74 16.6945 38.7375C17.9651 38.721 19.2177 38.4305 20.3686 37.8854C21.5195 37.3403 22.5421 36.5531 23.3684 35.5764C24.9862 33.6976 28.1904 28.3526 23.3112 19.1416L23.3526 19.1156C23.3377 19.0917 23.3232 19.0674 23.3083 19.0431L23.3017 19.0343C20.9862 15.2487 20.1621 11.8403 20.8772 9.3061C20.9852 8.92508 21.1322 8.55652 21.3159 8.20642C21.3652 8.11297 21.4154 8.01952 21.4701 7.929C21.5015 7.87661 21.5334 7.82506 21.5662 7.77519C21.6512 7.64583 21.7418 7.52011 21.8379 7.39802C21.8558 7.37497 21.8723 7.35023 21.8906 7.32802C21.9266 7.28402 21.9651 7.24421 22.002 7.2023C22.0633 7.13231 22.1238 7.06106 22.188 6.99526C22.217 6.96509 22.2481 6.93869 22.2775 6.91145C22.3533 6.83728 22.4291 6.76352 22.5083 6.69479C22.5298 6.67635 22.5522 6.66 22.5737 6.64198C22.6628 6.5678 22.7527 6.49489 22.8451 6.42741C22.8666 6.41191 22.889 6.39807 22.9106 6.38298C23.0025 6.3176 23.0957 6.25475 23.191 6.1965C23.225 6.17555 23.2594 6.15752 23.2938 6.1374C23.3766 6.08962 23.4595 6.0431 23.5424 5.99994C23.5987 5.97144 23.6555 5.94588 23.7126 5.91948C23.7698 5.89308 23.8328 5.86248 23.8937 5.83566C23.9765 5.80087 24.0594 5.76903 24.1452 5.73885C24.1779 5.72712 24.2102 5.71413 24.2429 5.70324C24.3523 5.66636 24.4621 5.63283 24.5719 5.60349L24.5901 5.59847C25.269 5.41556 25.979 5.38381 26.6711 5.50542C26.7026 5.51171 26.7333 5.51968 26.7643 5.52638C26.8364 5.54189 26.9081 5.55739 26.9773 5.57667C27.0821 5.60643 27.1844 5.63911 27.2843 5.67725V5.68144C27.3013 5.68773 27.3199 5.69233 27.3369 5.69862C28.3395 6.0777 29.1602 6.83127 29.63 7.80411C30.721 7.76129 31.8135 7.80543 32.8976 7.93612C33.326 7.99018 33.7369 8.06184 34.1355 8.14566C33.5136 5.63618 32.0541 3.03786 28.8184 1.7827Z" fill="black"/>
</svg>
