<svg width="32" height="32" viewBox="0 0 32 32" fill="none" xmlns="http://www.w3.org/2000/svg">
<path d="M16.2893 3.37646C9.5747 3.37646 4.08789 8.86327 4.08789 15.5779C4.08789 18.1486 4.89365 20.6426 6.42842 22.753L6.65863 23.0599L5.39245 26.8201L9.26775 25.5539L9.5747 25.7458C11.5699 27.0503 13.8721 27.7793 16.2893 27.7793C23.004 27.7793 28.4908 22.2925 28.4908 15.5779C28.4908 8.86327 23.0423 3.37646 16.2893 3.37646ZM24.0399 21.5251C23.6562 22.446 22.0064 23.2901 21.2773 23.3285C20.5483 23.3669 20.51 23.904 16.5579 22.1391C12.5675 20.3741 10.1886 16.1534 9.99676 15.8465C9.80492 15.5779 8.46199 13.6211 8.53873 11.6642C8.61547 9.7074 9.68981 8.78654 10.0735 8.40284C10.4572 8.01915 10.8793 7.94241 11.1478 7.94241C11.4164 7.94241 11.685 7.98078 11.9152 8.01915C12.1454 8.01915 12.4908 7.90404 12.7977 8.7098C13.0279 9.51555 13.757 11.5108 13.8721 11.7026C13.9488 11.8944 14.0255 12.1247 13.8721 12.3932C13.7186 12.6618 13.6418 12.8537 13.45 13.0839C13.2198 13.2757 12.9896 13.5827 12.8361 13.7362C12.6059 13.928 12.414 14.1582 12.6059 14.5419C12.8361 14.964 13.5651 16.2685 14.7162 17.3813C16.2126 18.8009 17.4788 19.2614 17.8625 19.4916C18.2462 19.7218 18.4764 19.6834 18.745 19.4148C18.9752 19.1462 19.7809 18.3021 20.0495 17.9184C20.3181 17.5347 20.5867 17.6115 20.9704 17.765C21.3157 17.9184 23.2342 18.9544 23.6562 19.1462C24.0399 19.3765 24.3085 19.4532 24.3852 19.645C24.462 19.7985 24.4236 20.6043 24.0399 21.5251Z" fill="#12B255"/>
<path d="M16.2882 0C7.69352 0 0.710305 6.98321 0.710305 15.5779C0.710305 18.5324 1.51606 21.295 2.93572 23.6355L0.134766 32L8.76786 29.2374C10.9933 30.4652 13.564 31.1942 16.2882 31.1942C24.883 31.1942 31.8662 24.211 31.8662 15.6163C31.9046 6.98321 24.9213 0 16.2882 0ZM16.2882 29.3525C13.7175 29.3525 11.2235 28.6235 9.03644 27.2806L2.97409 29.199L4.9693 23.3285C3.39616 21.0264 2.5904 18.3789 2.5904 15.5779C2.5904 7.98081 8.76786 1.84173 16.3266 1.84173C23.9237 1.84173 30.0628 8.01918 30.0628 15.5779C30.0628 23.1367 23.8854 29.3525 16.2882 29.3525Z" fill="#12B255"/>
</svg>
